<?xml version="1.0" encoding="UTF-8"?>
<svg xmlns="http://www.w3.org/2000/svg" xmlns:xlink="http://www.w3.org/1999/xlink" width="1222pt" height="750pt" viewBox="0 0 1222 750" version="1.1">
<defs>
<filter id="alpha" filterUnits="objectBoundingBox" x="0%" y="0%" width="100%" height="100%">
  <feColorMatrix type="matrix" in="SourceGraphic" values="0 0 0 0 1 0 0 0 0 1 0 0 0 0 1 0 0 0 1 0"/>
</filter>
<mask id="mask0">
  <g filter="url(#alpha)">
<rect x="0" y="0" width="1222" height="750" style="fill:rgb(0%,0%,0%);fill-opacity:0.2;stroke:none;"/>
  </g>
</mask>
<clipPath id="clip1">
  <rect x="0" y="0" width="1222" height="750"/>
</clipPath>
<g id="surface5" clip-path="url(#clip1)">
<path style=" stroke:none;fill-rule:nonzero;fill:rgb(0%,0%,0%);fill-opacity:1;" d="M 790.867188 160.070312 C 782.125 166.582031 776.972656 176.835938 776.960938 187.738281 L 776.960938 532.664062 C 776.984375 551.761719 792.449219 567.238281 811.53125 567.257812 L 964.671875 567.257812 C 970.480469 567.238281 976.265625 566.480469 981.882812 565.003906 C 971.546875 570.863281 959.867188 573.941406 947.988281 573.9375 L 794.84375 573.9375 C 775.761719 573.917969 760.296875 558.441406 760.277344 539.34375 L 760.277344 194.417969 C 760.300781 176.867188 773.445312 162.109375 790.867188 160.070312 Z M 790.867188 160.070312 "/>
</g>
<mask id="mask1">
  <g filter="url(#alpha)">
<rect x="0" y="0" width="1222" height="750" style="fill:rgb(0%,0%,0%);fill-opacity:0.2;stroke:none;"/>
  </g>
</mask>
<clipPath id="clip2">
  <rect x="0" y="0" width="1222" height="750"/>
</clipPath>
<g id="surface8" clip-path="url(#clip2)">
<path style=" stroke:none;fill-rule:nonzero;fill:rgb(0%,0%,0%);fill-opacity:1;" d="M 738.585938 283.390625 C 738.585938 263.195312 727.117188 246.351562 711.886719 242.484375 C 714.066406 241.925781 716.308594 241.644531 718.5625 241.644531 C 736.992188 241.644531 751.933594 260.335938 751.933594 283.390625 C 751.933594 306.445312 736.992188 325.136719 718.5625 325.136719 C 716.308594 325.136719 714.066406 324.855469 711.886719 324.296875 C 727.117188 320.429688 738.585938 303.585938 738.585938 283.390625 Z M 738.585938 283.390625 "/>
</g>
<mask id="mask2">
  <g filter="url(#alpha)">
<rect x="0" y="0" width="1222" height="750" style="fill:rgb(0%,0%,0%);fill-opacity:0.2;stroke:none;"/>
  </g>
</mask>
<clipPath id="clip3">
  <rect x="0" y="0" width="1222" height="750"/>
</clipPath>
<g id="surface11" clip-path="url(#clip3)">
<path style=" stroke:none;fill-rule:nonzero;fill:rgb(0%,0%,0%);fill-opacity:1;" d="M 726.902344 477.089844 L 726.902344 390.257812 C 726.886719 385.109375 723.496094 380.578125 718.5625 379.113281 C 719.640625 378.769531 720.765625 378.585938 721.898438 378.570312 C 728.347656 378.578125 733.570312 383.804688 733.578125 390.257812 L 733.578125 477.089844 C 733.570312 483.542969 728.347656 488.769531 721.898438 488.777344 C 720.765625 488.761719 719.640625 488.578125 718.5625 488.234375 C 723.496094 486.769531 726.886719 482.238281 726.902344 477.089844 Z M 726.902344 477.089844 "/>
</g>
<mask id="mask3">
  <g filter="url(#alpha)">
<rect x="0" y="0" width="1222" height="750" style="fill:rgb(0%,0%,0%);fill-opacity:0.301961;stroke:none;"/>
  </g>
</mask>
<clipPath id="clip4">
  <rect x="0" y="0" width="1222" height="750"/>
</clipPath>
<g id="surface14" clip-path="url(#clip4)">
<path style=" stroke:none;fill-rule:nonzero;fill:rgb(0%,0%,0%);fill-opacity:1;" d="M 551.703125 552.230469 C 551.699219 544.296875 546.121094 537.457031 538.351562 535.871094 C 544.984375 534.515625 551.777344 537.304688 555.546875 542.933594 C 559.3125 548.558594 559.3125 555.902344 555.546875 561.53125 C 551.777344 567.15625 544.984375 569.945312 538.351562 568.59375 C 546.121094 567.003906 551.699219 560.164062 551.703125 552.230469 Z M 551.703125 552.230469 "/>
</g>
<mask id="mask4">
  <g filter="url(#alpha)">
<rect x="0" y="0" width="1222" height="750" style="fill:rgb(0%,0%,0%);fill-opacity:0.301961;stroke:none;"/>
  </g>
</mask>
<clipPath id="clip5">
  <rect x="0" y="0" width="1222" height="750"/>
</clipPath>
<g id="surface17" clip-path="url(#clip5)">
<path style=" stroke:none;fill-rule:nonzero;fill:rgb(0%,0%,0%);fill-opacity:1;" d="M 544.175781 485.964844 C 544.175781 478.03125 538.597656 471.191406 530.828125 469.605469 C 537.460938 468.25 544.25 471.042969 548.019531 476.667969 C 551.789062 482.292969 551.789062 489.640625 548.019531 495.265625 C 544.25 500.890625 537.460938 503.679688 530.828125 502.328125 C 538.597656 500.738281 544.175781 493.902344 544.175781 485.964844 Z M 544.175781 485.964844 "/>
</g>
<mask id="mask5">
  <g filter="url(#alpha)">
<rect x="0" y="0" width="1222" height="750" style="fill:rgb(0%,0%,0%);fill-opacity:0.301961;stroke:none;"/>
  </g>
</mask>
<clipPath id="clip6">
  <rect x="0" y="0" width="1222" height="750"/>
</clipPath>
<g id="surface20" clip-path="url(#clip6)">
<path style=" stroke:none;fill-rule:nonzero;fill:rgb(0%,0%,0%);fill-opacity:1;" d="M 561.714844 181.53125 C 561.710938 173.597656 556.132812 166.757812 548.363281 165.171875 C 554.996094 163.816406 561.789062 166.605469 565.554688 172.234375 C 569.324219 177.859375 569.324219 185.207031 565.554688 190.832031 C 561.789062 196.457031 554.996094 199.246094 548.363281 197.894531 C 556.132812 196.304688 561.710938 189.464844 561.714844 181.53125 Z M 561.714844 181.53125 "/>
</g>
<mask id="mask6">
  <g filter="url(#alpha)">
<rect x="0" y="0" width="1222" height="750" style="fill:rgb(0%,0%,0%);fill-opacity:0.2;stroke:none;"/>
  </g>
</mask>
<clipPath id="clip7">
  <rect x="0" y="0" width="1222" height="750"/>
</clipPath>
<g id="surface23" clip-path="url(#clip7)">
<path style=" stroke:none;fill-rule:nonzero;fill:rgb(100%,100%,100%);fill-opacity:1;" d="M 930.289062 374.800781 C 930.289062 351.746094 915.347656 333.054688 896.914062 333.054688 C 878.484375 333.054688 863.542969 351.746094 863.542969 374.800781 C 863.542969 397.855469 878.484375 416.546875 896.914062 416.546875 C 915.347656 416.546875 930.289062 397.855469 930.289062 374.800781 Z M 930.289062 374.800781 "/>
</g>
<mask id="mask7">
  <g filter="url(#alpha)">
<rect x="0" y="0" width="1222" height="750" style="fill:rgb(0%,0%,0%);fill-opacity:0.2;stroke:none;"/>
  </g>
</mask>
<clipPath id="clip8">
  <rect x="0" y="0" width="1222" height="750"/>
</clipPath>
<g id="surface26" clip-path="url(#clip8)">
<path style=" stroke:none;fill-rule:nonzero;fill:rgb(100%,100%,100%);fill-opacity:1;" d="M 959.273438 374.800781 C 959.273438 331.722656 931.355469 296.800781 896.914062 296.800781 C 862.476562 296.800781 834.558594 331.722656 834.558594 374.800781 C 834.558594 417.882812 862.476562 452.804688 896.914062 452.804688 C 931.355469 452.804688 959.273438 417.882812 959.273438 374.800781 Z M 959.273438 374.800781 "/>
</g>
<mask id="mask8">
  <g filter="url(#alpha)">
<rect x="0" y="0" width="1222" height="750" style="fill:rgb(0%,0%,0%);fill-opacity:0.2;stroke:none;"/>
  </g>
</mask>
<clipPath id="clip9">
  <rect x="0" y="0" width="1222" height="750"/>
</clipPath>
<g id="surface29" clip-path="url(#clip9)">
<path style=" stroke:none;fill-rule:nonzero;fill:rgb(100%,100%,100%);fill-opacity:1;" d="M 990.863281 374.800781 C 990.863281 309.898438 948.800781 257.28125 896.914062 257.28125 C 845.03125 257.28125 802.96875 309.898438 802.96875 374.800781 C 802.96875 439.707031 845.03125 492.320312 896.914062 492.320312 C 948.800781 492.320312 990.863281 439.707031 990.863281 374.800781 Z M 990.863281 374.800781 "/>
</g>
</defs>
<g id="surface1">
<path style=" stroke:none;fill-rule:nonzero;fill:rgb(90.196078%,90.196078%,90.196078%);fill-opacity:1;" d="M 357.683594 732.910156 C 276.179688 732.777344 210.097656 736.390625 210.089844 740.976562 C 210.082031 745.558594 276.152344 749.382812 357.660156 749.515625 C 439.164062 749.644531 505.246094 746.035156 505.253906 741.449219 C 505.261719 736.863281 439.191406 733.042969 357.683594 732.910156 Z M 357.683594 732.910156 "/>
<path style=" stroke:none;fill-rule:nonzero;fill:rgb(62.745098%,38.039216%,41.568627%);fill-opacity:1;" d="M 436.625 339.714844 L 454.875 344.5625 C 458.613281 345.558594 462.597656 344.851562 465.765625 342.636719 C 468.9375 340.421875 470.972656 336.921875 471.328125 333.066406 C 471.710938 328.910156 470.097656 324.820312 466.984375 322.046875 C 463.871094 319.269531 459.628906 318.136719 455.546875 318.996094 L 436.117188 323.078125 L 373.753906 321.082031 L 355.121094 288.730469 L 334.46875 308.925781 L 361.800781 344.054688 Z M 436.625 339.714844 "/>
<path style=" stroke:none;fill-rule:nonzero;fill:rgb(34.117647%,35.294118%,53.333333%);fill-opacity:1;" d="M 330.523438 311.550781 L 374.121094 296.101562 L 358.820312 267.003906 C 355.492188 260.675781 349.59375 256.101562 342.644531 254.453125 C 335.695312 252.804688 328.371094 254.246094 322.5625 258.40625 C 317.1875 262.253906 313.578125 268.097656 312.539062 274.625 C 311.5 281.15625 313.117188 287.832031 317.027344 293.160156 Z M 330.523438 311.550781 "/>
<path style=" stroke:none;fill-rule:nonzero;fill:rgb(18.431373%,18.039216%,25.490196%);fill-opacity:1;" d="M 377.183594 354.089844 L 389.238281 410.839844 L 454.613281 666.332031 L 405.140625 681.363281 L 347.71875 478.027344 L 285.878906 682.246094 L 230.222656 666.332031 L 284.996094 525.765625 L 291.179688 454.15625 C 291.179688 454.15625 270.933594 395.574219 311.09375 353.257812 Z M 377.183594 354.089844 "/>
<path style=" stroke:none;fill-rule:nonzero;fill:rgb(18.431373%,18.039216%,25.490196%);fill-opacity:1;" d="M 231.074219 740.574219 L 250.496094 742.175781 L 252.753906 718.925781 C 257.171875 735.894531 265.492188 744.699219 277.449219 745.910156 C 283.335938 746.417969 288.984375 743.449219 291.910156 738.308594 C 292.160156 737.878906 292.386719 737.441406 292.59375 736.992188 C 294.417969 732.660156 292.804688 727.644531 288.800781 725.1875 C 275.839844 716.582031 277.351562 690.113281 279.949219 662.300781 L 255.699219 661.734375 L 252.398438 681.816406 C 235.046875 698.320312 230.617188 717.546875 231.074219 740.574219 Z M 231.074219 740.574219 "/>
<path style=" stroke:none;fill-rule:nonzero;fill:rgb(18.431373%,18.039216%,25.490196%);fill-opacity:1;" d="M 401.78125 743.808594 L 421.253906 743.078125 L 420.722656 719.726562 C 427.132812 736.046875 436.445312 743.792969 448.460938 743.566406 C 454.367188 743.367188 459.621094 739.746094 461.910156 734.292969 C 462.109375 733.835938 462.28125 733.375 462.433594 732.90625 C 463.726562 728.386719 461.527344 723.597656 457.257812 721.636719 C 443.367188 714.640625 441.707031 688.183594 440.972656 660.257812 L 416.828125 662.589844 L 415.945312 682.925781 C 400.683594 701.382812 398.582031 721 401.78125 743.808594 Z M 401.78125 743.808594 "/>
<path style=" stroke:none;fill-rule:nonzero;fill:rgb(62.745098%,38.039216%,41.568627%);fill-opacity:1;" d="M 338.332031 195.890625 C 338.332031 213.207031 324.304688 227.25 307 227.25 C 289.691406 227.25 275.664062 213.207031 275.664062 195.890625 C 275.664062 178.574219 289.691406 164.535156 307 164.535156 C 324.304688 164.535156 338.332031 178.574219 338.332031 195.890625 Z M 338.332031 195.890625 "/>
<path style=" stroke:none;fill-rule:nonzero;fill:rgb(62.745098%,38.039216%,41.568627%);fill-opacity:1;" d="M 294.714844 318.894531 L 340.652344 271.15625 L 318.566406 238.445312 L 317.683594 206.617188 L 280.578125 206.617188 L 284.023438 233.992188 C 260.746094 260.46875 273.941406 289.425781 294.714844 318.894531 Z M 294.714844 318.894531 "/>
<path style=" stroke:none;fill-rule:nonzero;fill:rgb(34.117647%,35.294118%,53.333333%);fill-opacity:1;" d="M 307.523438 356.46875 L 382.613281 364.425781 C 375.050781 310.113281 358.773438 266.9375 332.699219 257.894531 L 271.746094 272.039062 Z M 307.523438 356.46875 "/>
<path style=" stroke:none;fill-rule:nonzero;fill:rgb(62.745098%,38.039216%,41.568627%);fill-opacity:1;" d="M 311.195312 391.027344 L 319.796875 407.847656 C 321.558594 411.292969 324.746094 413.785156 328.511719 414.660156 C 332.277344 415.539062 336.238281 414.707031 339.339844 412.394531 C 342.683594 409.902344 344.644531 405.96875 344.625 401.792969 C 344.605469 397.621094 342.605469 393.707031 339.238281 391.246094 L 323.210938 379.519531 L 282.980469 331.792969 L 294.546875 296.292969 L 265.730469 294.4375 L 257.917969 338.265625 Z M 311.195312 391.027344 "/>
<path style=" stroke:none;fill-rule:nonzero;fill:rgb(34.117647%,35.294118%,53.333333%);fill-opacity:1;" d="M 261.144531 293.257812 L 301.78125 315.359375 L 313.164062 284.511719 C 315.636719 277.804688 315.089844 270.355469 311.664062 264.082031 C 308.242188 257.808594 302.269531 253.328125 295.296875 251.789062 C 288.84375 250.367188 282.089844 251.589844 276.542969 255.183594 C 270.996094 258.777344 267.121094 264.441406 265.777344 270.917969 Z M 261.144531 293.257812 "/>
<path style=" stroke:none;fill-rule:nonzero;fill:rgb(18.431373%,18.039216%,25.490196%);fill-opacity:1;" d="M 298.945312 199.820312 C 303.578125 201.238281 308.085938 197.1875 310.546875 193.011719 C 313.003906 188.832031 314.863281 183.875 319.074219 181.476562 C 324.53125 178.371094 332.195312 180.675781 337.042969 176.679688 C 341.636719 172.890625 340.816406 165.085938 336.734375 160.753906 C 332.648438 156.421875 326.449219 154.847656 320.539062 154.15625 C 307.210938 152.59375 293.101562 154.683594 281.910156 162.09375 C 270.714844 169.5 262.988281 182.730469 264.160156 196.109375 C 264.664062 201.859375 266.707031 207.347656 267.964844 212.980469 C 269.226562 218.617188 269.636719 224.773438 267.042969 229.929688 C 263.625 236.730469 255.625 240.207031 248.023438 240.453125 C 240.417969 240.699219 233.011719 238.296875 225.734375 236.085938 C 218.453125 233.878906 210.878906 231.816406 203.332031 232.765625 C 192.132812 234.445312 182.71875 242.050781 178.714844 252.648438 C 174.957031 263.285156 176.464844 275.074219 182.78125 284.417969 C 189.230469 294.023438 199.949219 300.222656 211.203125 302.878906 C 222.460938 305.535156 234.257812 304.917969 245.664062 303.027344 C 260.726562 300.527344 275.34375 295.859375 289.0625 289.164062 C 297.410156 285.089844 305.84375 279.792969 309.820312 271.398438 C 313.753906 263.082031 312.511719 253.050781 308.632812 244.710938 C 304.753906 236.371094 298.511719 229.394531 292.261719 222.648438 C 289.089844 219.222656 285.820312 215.707031 284.132812 211.355469 C 282.441406 207 282.699219 201.546875 286.007812 198.257812 C 289.320312 194.964844 295.957031 195.394531 297.820312 199.675781 "/>
<path style=" stroke:none;fill-rule:nonzero;fill:rgb(90.196078%,90.196078%,90.196078%);fill-opacity:1;" d="M 137.042969 686.8125 C 137.039062 683.925781 106.355469 681.632812 68.511719 681.691406 C 30.667969 681.753906 -0.00390625 684.144531 0 687.03125 C 0.00390625 689.921875 30.6875 692.214844 68.53125 692.152344 C 106.371094 692.089844 137.046875 689.699219 137.042969 686.8125 Z M 137.042969 686.8125 "/>
<path style=" stroke:none;fill-rule:nonzero;fill:rgb(90.196078%,90.196078%,90.196078%);fill-opacity:1;" d="M 826.941406 737.476562 C 826.933594 733.035156 762.933594 729.539062 683.992188 729.664062 C 605.054688 729.792969 541.066406 733.496094 541.074219 737.9375 C 541.082031 742.375 605.082031 745.875 684.019531 745.746094 C 762.960938 745.617188 826.945312 741.914062 826.941406 737.476562 Z M 826.941406 737.476562 "/>
<path style=" stroke:none;fill-rule:nonzero;fill:rgb(90.196078%,90.196078%,90.196078%);fill-opacity:1;" d="M 1222.734375 737.472656 C 1222.726562 733.03125 1158.730469 729.535156 1079.789062 729.664062 C 1000.851562 729.789062 936.863281 733.492188 936.871094 737.933594 C 936.878906 742.375 1000.875 745.871094 1079.816406 745.742188 C 1158.753906 745.617188 1222.742188 741.914062 1222.734375 737.472656 Z M 1222.734375 737.472656 "/>
<path style=" stroke:none;fill-rule:nonzero;fill:rgb(80%,80%,80%);fill-opacity:1;" d="M 728.574219 675.796875 C 728.574219 675.796875 588.410156 605.664062 608.433594 408.625 C 628.457031 211.589844 621.78125 231.625 621.78125 231.625 C 621.78125 231.625 655.15625 121.417969 715.222656 81.34375 C 715.222656 81.34375 571.722656 -65.601562 458.261719 201.570312 C 458.261719 201.570312 428.226562 361.871094 451.585938 468.738281 C 474.945312 575.609375 528.339844 662.4375 528.339844 662.4375 C 528.339844 662.4375 578.398438 712.535156 635.132812 712.535156 C 691.863281 712.535156 728.574219 675.796875 728.574219 675.796875 Z M 728.574219 675.796875 "/>
<path style=" stroke:none;fill-rule:nonzero;fill:rgb(90.196078%,90.196078%,90.196078%);fill-opacity:1;" d="M 960.507812 557.242188 C 960.507812 557.242188 880.414062 770.976562 630.125 730.902344 C 379.835938 690.824219 446.578125 256.671875 446.578125 256.671875 C 446.578125 256.671875 418.613281 580.539062 564.949219 675.785156 C 605.492188 702.175781 658.453125 702.410156 697.183594 673.417969 C 722.851562 654.207031 744.839844 620.691406 741.921875 562.25 Z M 960.507812 557.242188 "/>
<path style=" stroke:none;fill-rule:nonzero;fill:rgb(90.196078%,90.196078%,90.196078%);fill-opacity:1;" d="M 952.703125 150.59375 C 952.703125 150.59375 838.699219 -55.582031 591.746094 14.550781 C 438.667969 79.820312 441.519531 247.875 441.519531 247.875 C 423.058594 526.519531 621.726562 522.019531 668.503906 224.945312 C 676.714844 172.785156 660.160156 143.125 660.160156 143.125 C 660.160156 143.125 636.800781 213.257812 565.050781 228.285156 C 493.1875 243.339844 480.902344 219.394531 483.289062 183.203125 C 483.3125 182.839844 483.335938 182.480469 483.363281 182.121094 C 485.328125 152.804688 496.695312 124.90625 515.773438 102.570312 C 556.910156 54.636719 646.574219 -15.355469 741.921875 131.4375 L 748.597656 147.953125 C 748.597656 147.953125 866.476562 179.769531 952.703125 150.59375 Z M 952.703125 150.59375 "/>
<path style=" stroke:none;fill-rule:nonzero;fill:rgb(24.705882%,23.921569%,33.72549%);fill-opacity:1;" d="M 768.585938 144.796875 C 732.679688 144.835938 703.585938 173.953125 703.542969 209.886719 L 703.542969 516.191406 C 703.585938 553.601562 733.878906 583.914062 771.257812 583.957031 L 932.296875 583.957031 C 977.347656 583.90625 1013.851562 547.375 1013.902344 502.292969 L 1013.902344 227.097656 C 1013.851562 181.664062 977.0625 144.847656 931.664062 144.796875 Z M 768.585938 144.796875 "/>
<path style=" stroke:none;fill-rule:nonzero;fill:rgb(42.352941%,38.823529%,100%);fill-opacity:1;" d="M 796.511719 158.15625 C 777.429688 158.175781 761.964844 173.652344 761.945312 192.746094 L 761.945312 537.675781 C 761.964844 556.773438 777.429688 572.246094 796.511719 572.269531 L 949.65625 572.269531 C 987.886719 572.226562 1018.863281 541.222656 1018.910156 502.964844 L 1018.910156 219.214844 C 1018.871094 185.507812 991.574219 158.191406 957.894531 158.15625 Z M 796.511719 158.15625 "/>
<use xlink:href="#surface5" mask="url(#mask0)"/>
<path style=" stroke:none;fill-rule:nonzero;fill:rgb(42.352941%,38.823529%,100%);fill-opacity:1;" d="M 748.597656 283.390625 C 748.597656 260.335938 733.65625 241.644531 715.222656 241.644531 C 696.792969 241.644531 681.851562 260.335938 681.851562 283.390625 C 681.851562 306.445312 696.792969 325.136719 715.222656 325.136719 C 733.65625 325.136719 748.597656 306.445312 748.597656 283.390625 Z M 748.597656 283.390625 "/>
<use xlink:href="#surface8" mask="url(#mask1)"/>
<path style=" stroke:none;fill-rule:nonzero;fill:rgb(42.352941%,38.823529%,100%);fill-opacity:1;" d="M 708.550781 390.257812 L 708.550781 477.089844 C 708.550781 483.542969 713.777344 488.777344 720.230469 488.777344 C 726.679688 488.777344 731.910156 483.542969 731.910156 477.089844 L 731.910156 390.257812 C 731.910156 383.804688 726.679688 378.570312 720.230469 378.570312 C 713.777344 378.570312 708.550781 383.804688 708.550781 390.257812 Z M 708.550781 390.257812 "/>
<use xlink:href="#surface11" mask="url(#mask2)"/>
<path style=" stroke:none;fill-rule:nonzero;fill:rgb(100%,100%,100%);fill-opacity:1;" d="M 558.375 552.230469 C 558.375 561.453125 550.90625 568.929688 541.691406 568.929688 C 532.472656 568.929688 525.003906 561.453125 525.003906 552.230469 C 525.003906 543.007812 532.472656 535.53125 541.691406 535.53125 C 550.90625 535.53125 558.375 543.007812 558.375 552.230469 Z M 558.375 552.230469 "/>
<use xlink:href="#surface14" mask="url(#mask3)"/>
<path style=" stroke:none;fill-rule:nonzero;fill:rgb(100%,100%,100%);fill-opacity:1;" d="M 550.851562 485.964844 C 550.851562 495.1875 543.378906 502.664062 534.164062 502.664062 C 524.949219 502.664062 517.480469 495.1875 517.480469 485.964844 C 517.480469 476.742188 524.949219 469.269531 534.164062 469.269531 C 543.378906 469.269531 550.851562 476.742188 550.851562 485.964844 Z M 550.851562 485.964844 "/>
<use xlink:href="#surface17" mask="url(#mask4)"/>
<path style=" stroke:none;fill-rule:nonzero;fill:rgb(100%,100%,100%);fill-opacity:1;" d="M 568.386719 181.53125 C 568.386719 190.753906 560.917969 198.230469 551.703125 198.230469 C 542.484375 198.230469 535.015625 190.753906 535.015625 181.53125 C 535.015625 172.308594 542.484375 164.832031 551.703125 164.832031 C 560.917969 164.832031 568.386719 172.308594 568.386719 181.53125 Z M 568.386719 181.53125 "/>
<use xlink:href="#surface20" mask="url(#mask5)"/>
<use xlink:href="#surface23" mask="url(#mask6)"/>
<use xlink:href="#surface26" mask="url(#mask7)"/>
<use xlink:href="#surface29" mask="url(#mask8)"/>
<path style=" stroke:none;fill-rule:nonzero;fill:rgb(90.196078%,90.196078%,90.196078%);fill-opacity:1;" d="M 14.644531 464.324219 C 32.886719 490.128906 37.703125 636.992188 38.777344 684.070312 C 38.804688 685.132812 38.832031 686.136719 38.847656 687.089844 L 85.023438 687.089844 C 85.585938 686.082031 86.109375 685.089844 86.605469 684.070312 C 113.972656 630.007812 98.789062 565.1875 97.992188 561.90625 C 100.070312 572.210938 90.667969 602.082031 80.039062 631.015625 C 73.554688 542.054688 18.113281 468.8125 14.644531 464.324219 Z M 14.644531 464.324219 "/>
<path style=" stroke:none;fill-rule:nonzero;fill:rgb(100%,72.156863%,72.156863%);fill-opacity:1;" d="M 1200.203125 461.414062 L 1202.453125 476.800781 C 1203.070312 481.039062 1201.660156 485.324219 1198.644531 488.363281 C 1195.628906 491.402344 1191.359375 492.839844 1187.117188 492.25 C 1183.007812 491.675781 1179.382812 489.253906 1177.277344 485.671875 C 1175.171875 482.089844 1174.816406 477.742188 1176.3125 473.867188 L 1183.949219 454.09375 L 1179.886719 320.722656 L 1203.453125 311.777344 Z M 1200.203125 461.414062 "/>
<path style=" stroke:none;fill-rule:nonzero;fill:rgb(100%,72.156863%,72.156863%);fill-opacity:1;" d="M 1166.070312 207.679688 C 1166.070312 225.644531 1151.515625 240.210938 1133.5625 240.210938 C 1115.609375 240.210938 1101.058594 225.644531 1101.058594 207.679688 C 1101.058594 189.714844 1115.609375 175.148438 1133.5625 175.148438 C 1151.515625 175.148438 1166.070312 189.714844 1166.070312 207.679688 Z M 1166.070312 207.679688 "/>
<path style=" stroke:none;fill-rule:nonzero;fill:rgb(100%,72.156863%,72.156863%);fill-opacity:1;" d="M 1172.570312 268.671875 L 1112.433594 266.234375 C 1119.109375 251.601562 1121.757812 237.449219 1118.9375 223.945312 L 1158.753906 223.945312 C 1156.660156 236.679688 1162.441406 251.96875 1172.570312 268.671875 Z M 1172.570312 268.671875 "/>
<path style=" stroke:none;fill-rule:nonzero;fill:rgb(34.117647%,35.294118%,53.333333%);fill-opacity:1;" d="M 1162.820312 395.539062 L 1074.238281 402.046875 L 1077.460938 351.957031 C 1067.25 327.65625 1068.882812 310.109375 1080.898438 298.488281 L 1081.984375 281.5625 C 1082.699219 270.457031 1090.40625 261.039062 1101.148438 258.15625 L 1116.496094 254.035156 C 1136.371094 265.6875 1152.214844 265.527344 1163.632812 252.410156 L 1181.898438 261.773438 C 1190.960938 266.417969 1196.207031 276.183594 1195.082031 286.308594 Z M 1162.820312 395.539062 "/>
<path style=" stroke:none;fill-rule:nonzero;fill:rgb(100%,72.156863%,72.156863%);fill-opacity:1;" d="M 1027.105469 400.417969 L 1002.101562 413.554688 C 997.699219 415.871094 992.285156 414.867188 989 411.132812 C 986.460938 408.246094 985.652344 404.222656 986.875 400.574219 C 988.097656 396.929688 991.167969 394.210938 994.933594 393.4375 L 1012.476562 389.847656 L 1066.925781 368.703125 L 1075.863281 305.269531 L 1101.058594 311.777344 L 1096.179688 386.59375 Z M 1027.105469 400.417969 "/>
<path style=" stroke:none;fill-rule:nonzero;fill:rgb(34.117647%,35.294118%,53.333333%);fill-opacity:1;" d="M 1205.078125 315.84375 L 1177.445312 332.105469 L 1175.820312 267.046875 L 1180.585938 265.421875 C 1194.113281 265.421875 1205.078125 276.394531 1205.078125 289.929688 Z M 1205.078125 315.84375 "/>
<path style=" stroke:none;fill-rule:nonzero;fill:rgb(18.431373%,18.039216%,25.490196%);fill-opacity:1;" d="M 1185.980469 714.738281 L 1162.484375 711.0625 C 1157.742188 630.730469 1148.183594 555.734375 1131.125 489.0625 C 1091.675781 541.378906 1058.601562 618.484375 1030.355469 714.332031 L 1002.726562 707.015625 L 1075.050781 391.472656 L 1161.195312 389.847656 C 1196.421875 438.117188 1186.109375 587.199219 1185.980469 714.738281 Z M 1185.980469 714.738281 "/>
<path style=" stroke:none;fill-rule:nonzero;fill:rgb(18.431373%,18.039216%,25.490196%);fill-opacity:1;" d="M 1018.15625 742.503906 L 977.332031 736.777344 C 975.042969 736.457031 973 735.164062 971.726562 733.234375 C 970.457031 731.300781 970.074219 728.914062 970.683594 726.679688 C 971.527344 723.585938 974.125 721.285156 977.296875 720.828125 L 984.554688 719.78125 L 1007.488281 705.761719 L 1026.464844 710.824219 L 1032.089844 727.4375 C 1032.96875 731.4375 1031.835938 735.613281 1029.058594 738.617188 C 1026.277344 741.621094 1022.207031 743.074219 1018.15625 742.503906 Z M 1018.15625 742.503906 "/>
<path style=" stroke:none;fill-rule:nonzero;fill:rgb(18.431373%,18.039216%,25.490196%);fill-opacity:1;" d="M 1178.25 742.503906 L 1137.425781 736.777344 C 1135.136719 736.457031 1133.09375 735.164062 1131.820312 733.234375 C 1130.546875 731.300781 1130.167969 728.914062 1130.777344 726.679688 C 1131.621094 723.585938 1134.21875 721.285156 1137.390625 720.828125 L 1144.644531 719.78125 L 1167.582031 705.761719 L 1186.554688 710.824219 L 1192.183594 727.4375 C 1193.0625 731.4375 1191.929688 735.613281 1189.148438 738.617188 C 1186.371094 741.621094 1182.300781 743.074219 1178.25 742.503906 Z M 1178.25 742.503906 "/>
<path style=" stroke:none;fill-rule:nonzero;fill:rgb(34.117647%,35.294118%,53.333333%);fill-opacity:1;" d="M 1105.933594 328.039062 C 1098.542969 311.789062 1085.785156 305.492188 1064.488281 315.027344 L 1067.359375 293.835938 C 1069.5625 277.574219 1081.207031 264.171875 1096.992188 259.726562 Z M 1105.933594 328.039062 "/>
<path style=" stroke:none;fill-rule:nonzero;fill:rgb(18.431373%,18.039216%,25.490196%);fill-opacity:1;" d="M 1095.199219 190.988281 C 1095.199219 190.988281 1090.085938 151.164062 1131.8125 164.222656 C 1131.8125 164.222656 1161.609375 158.75 1171.382812 196.054688 L 1181.28125 235.15625 L 1176.457031 232.527344 L 1174.207031 237.445312 L 1166.394531 239.429688 L 1163.050781 232.785156 L 1161.433594 240.851562 L 1097.425781 247.238281 C 1097.425781 247.238281 1126.09375 230.269531 1126.546875 199.863281 L 1121.085938 205.636719 Z M 1095.199219 190.988281 "/>
<path style=" stroke:none;fill-rule:nonzero;fill:rgb(18.431373%,18.039216%,25.490196%);fill-opacity:1;" d="M 1182.21875 164.613281 C 1182.21875 173.507812 1175.015625 180.71875 1166.125 180.71875 C 1157.238281 180.71875 1150.03125 173.507812 1150.03125 164.613281 C 1150.03125 155.71875 1157.238281 148.507812 1166.125 148.507812 C 1175.015625 148.507812 1182.21875 155.71875 1182.21875 164.613281 Z M 1182.21875 164.613281 "/>
<path style=" stroke:none;fill-rule:nonzero;fill:rgb(18.431373%,18.039216%,25.490196%);fill-opacity:1;" d="M 1149.542969 160.667969 C 1150.089844 152.1875 1157.136719 145.59375 1165.628906 145.617188 C 1165.296875 145.574219 1164.964844 145.523438 1164.628906 145.5 C 1155.757812 144.929688 1148.105469 151.664062 1147.535156 160.539062 C 1146.964844 169.417969 1153.691406 177.078125 1162.5625 177.648438 C 1162.902344 177.667969 1163.234375 177.660156 1163.570312 177.660156 C 1155.144531 176.59375 1149 169.152344 1149.542969 160.667969 Z M 1149.542969 160.667969 "/>
</g>
</svg>
